<?xml version="1.0" standalone="no"?>
<!DOCTYPE svg PUBLIC "-//W3C//DTD SVG 20010904//EN"
 "http://www.w3.org/TR/2001/REC-SVG-20010904/DTD/svg10.dtd">
<svg version="1.0" xmlns="http://www.w3.org/2000/svg"
 width="640.000000pt" height="640.000000pt" viewBox="0 0 640.000000 640.000000"
 preserveAspectRatio="xMidYMid meet">
<metadata>
Created by potrace 1.11, written by Peter Selinger 2001-2013
</metadata>
<g transform="translate(0.000000,640.000000) scale(0.100000,-0.100000)"
fill="#000000" stroke="none">
<path d="M2998 6396 c-1 -2 -41 -7 -88 -10 -47 -4 -94 -9 -105 -11 -11 -2 -42
-7 -70 -10 -166 -20 -424 -86 -629 -160 -118 -43 -378 -159 -408 -182 -7 -5
-21 -13 -30 -16 -26 -9 -22 -26 12 -45 16 -9 30 -24 30 -33 0 -21 -38 -69 -54
-69 -19 0 -59 -47 -51 -59 3 -6 13 -11 21 -11 9 0 30 -16 47 -35 37 -42 67
-47 67 -10 0 17 8 29 23 36 12 5 36 31 52 57 23 35 40 50 70 60 22 7 66 33 98
58 72 57 91 55 95 -9 3 -51 7 -54 36 -32 10 8 24 11 30 8 6 -4 59 -7 117 -8
118 -1 139 -10 139 -56 0 -20 9 -35 34 -54 l34 -26 -19 -42 c-24 -54 -25 -87
-1 -87 22 0 102 -80 102 -102 0 -9 -5 -20 -10 -23 -7 -4 -8 -24 -5 -50 10 -61
-8 -66 -59 -16 -42 42 -76 53 -76 26 0 -8 17 -26 38 -39 34 -22 38 -28 41 -71
3 -61 -12 -80 -44 -59 -13 9 -29 13 -35 9 -20 -13 -9 -35 30 -60 38 -24 54
-55 28 -55 -7 0 -51 13 -97 29 -77 27 -85 33 -104 70 -16 32 -29 43 -58 51
-20 6 -43 17 -50 26 -11 14 -10 18 6 31 11 8 31 19 45 24 14 6 41 33 60 61
l34 51 -21 14 c-20 14 -20 16 -6 42 20 34 11 77 -18 86 -32 10 -69 -32 -80
-91 -11 -59 -32 -82 -95 -103 -61 -21 -78 -45 -46 -69 20 -15 23 -26 20 -67
-4 -57 -31 -83 -95 -92 -37 -5 -42 -3 -54 23 -8 16 -21 30 -30 32 -23 4 -67
-34 -89 -79 -11 -21 -37 -50 -58 -63 -50 -32 -139 -125 -151 -157 -10 -27 -2
-124 13 -147 4 -6 25 -15 46 -18 22 -4 47 -16 58 -29 11 -13 45 -41 75 -64 30
-23 58 -52 61 -64 3 -12 6 -57 6 -100 0 -81 11 -117 35 -117 31 0 42 27 43
115 1 95 15 129 58 145 14 6 24 18 24 29 0 10 7 24 15 31 25 21 36 79 20 109
-17 33 -10 228 10 275 25 60 147 73 190 21 12 -16 39 -30 70 -38 53 -13 69
-39 28 -45 -21 -3 -23 -9 -23 -58 0 -47 2 -54 20 -54 21 0 85 63 95 93 4 9 14
17 24 17 31 0 41 -17 92 -157 11 -29 28 -66 38 -83 19 -33 81 -89 119 -109 12
-6 36 -40 53 -74 18 -34 40 -73 50 -86 35 -44 26 -57 -43 -65 -40 -4 -67 -12
-75 -22 -20 -28 -76 -64 -98 -64 -12 0 -36 -11 -55 -25 -26 -19 -46 -25 -86
-25 -46 0 -58 -5 -98 -37 -45 -39 -107 -136 -93 -149 10 -10 53 32 68 67 13
34 49 55 112 69 23 5 61 14 85 21 44 12 68 5 42 -11 -8 -6 -24 -10 -36 -10
-21 0 -64 -38 -64 -57 0 -6 -7 -16 -15 -23 -14 -12 -14 -26 2 -82 3 -13 15
-18 40 -18 20 0 46 -9 60 -20 30 -24 48 -14 58 30 3 16 13 34 21 41 18 15 28
4 44 -51 9 -32 8 -37 -17 -58 -16 -13 -41 -32 -57 -42 -16 -10 -57 -46 -91
-79 -34 -34 -66 -61 -71 -61 -14 0 -34 74 -27 101 5 19 -2 15 -36 -23 -23 -26
-56 -56 -75 -67 -43 -27 -56 -58 -56 -135 0 -74 -13 -92 -61 -82 -17 3 -45 0
-65 -9 -31 -13 -34 -18 -34 -55 0 -83 -38 -130 -106 -130 -33 0 -32 -37 2 -87
23 -34 25 -45 20 -98 -9 -96 -23 -129 -81 -194 -30 -34 -55 -71 -55 -83 0 -11
-18 -49 -40 -84 -22 -35 -40 -70 -40 -78 0 -21 28 -102 55 -161 30 -65 48
-127 43 -151 -4 -23 -55 -31 -80 -12 -20 15 -78 148 -85 196 -3 17 -11 32 -17
32 -7 0 -30 15 -52 34 -64 54 -155 79 -207 55 -19 -9 -24 -18 -23 -47 1 -41 8
-40 -99 -21 -97 17 -152 -3 -196 -72 l-31 -50 -1 -147 -1 -147 57 -109 c31
-60 75 -126 97 -148 22 -22 40 -44 40 -48 0 -16 61 -30 82 -19 30 16 58 70 58
112 0 55 43 97 99 97 62 0 73 -18 66 -109 -7 -88 16 -259 37 -272 7 -5 52 -9
99 -9 52 0 92 -5 102 -13 13 -9 19 -35 24 -107 7 -106 11 -116 93 -201 64 -67
88 -76 149 -54 55 19 80 19 102 -1 28 -25 49 -11 49 34 0 30 7 45 33 70 18 18
38 32 43 32 14 0 104 87 104 100 0 5 4 10 10 10 13 0 30 -66 30 -119 0 -63 25
-38 33 33 3 30 11 64 17 76 11 21 12 21 31 4 10 -9 19 -30 19 -46 0 -21 5 -28
19 -28 10 0 21 7 25 15 8 22 26 18 26 -5 0 -11 11 -27 24 -36 24 -15 28 -14
96 22 61 32 74 35 96 25 37 -17 82 -13 113 8 l27 20 13 -47 c29 -107 38 -119
106 -142 35 -12 81 -37 105 -58 l44 -37 124 0 124 0 26 -32 c93 -110 102 -123
102 -150 0 -16 -7 -39 -16 -51 -8 -12 -14 -35 -12 -50 5 -41 47 -42 112 -2 44
28 60 32 110 31 46 -1 65 -6 82 -22 20 -19 33 -21 159 -20 129 1 140 0 180
-23 53 -31 108 -93 101 -113 -3 -8 -6 -27 -6 -43 0 -19 -13 -44 -40 -75 -22
-25 -40 -53 -40 -62 0 -9 -16 -30 -35 -49 -29 -27 -43 -56 -80 -168 -25 -75
-45 -142 -45 -148 0 -24 -100 -136 -133 -148 -55 -22 -96 -59 -122 -111 -31
-60 -88 -126 -118 -135 -24 -7 -87 -63 -87 -76 0 -5 10 -7 23 -4 12 2 40 7 62
11 573 97 1069 323 1525 694 129 106 373 350 395 397 10 21 21 32 28 28 7 -4
9 -4 5 0 -10 12 72 156 121 213 25 28 53 67 63 85 31 63 100 213 119 262 11
27 29 60 39 74 11 14 20 35 20 47 0 12 7 42 15 65 8 23 15 56 15 73 0 17 14
62 31 101 64 146 61 134 44 165 -23 46 -39 44 -99 -7 -37 -32 -66 -68 -87
-110 -30 -61 -81 -112 -112 -112 -19 0 -77 47 -77 63 0 6 -14 25 -30 42 -23
23 -32 44 -36 81 -5 41 -11 53 -35 67 -24 13 -29 23 -29 53 0 28 -8 46 -36 76
-35 40 -36 41 -28 101 4 34 7 69 6 77 -1 8 -3 92 -5 185 -2 106 -8 181 -16
200 -19 45 -22 242 -5 284 11 27 13 58 8 133 l-7 98 37 60 38 61 -16 40 c-9
22 -16 61 -16 87 0 26 -4 53 -9 61 -6 9 -4 31 4 57 9 32 10 55 3 86 -10 47 -4
124 14 164 8 17 24 28 55 36 36 9 47 17 64 51 12 22 18 48 16 58 -10 38 13 87
61 129 26 23 52 54 58 68 l11 27 31 -50 c18 -27 35 -61 38 -75 13 -61 44 -110
81 -129 21 -10 47 -28 57 -40 17 -19 66 -30 66 -15 0 4 -10 22 -21 41 -24 39
-29 104 -9 128 7 8 25 15 41 15 16 0 29 4 29 8 0 23 -144 342 -154 342 -2 0 1
-13 6 -28 9 -23 7 -36 -8 -68 -20 -42 -54 -59 -54 -27 -1 19 -85 121 -94 112
-3 -2 7 -28 21 -57 21 -42 23 -55 13 -65 -9 -9 -15 -8 -24 7 -6 11 -23 34 -38
51 -16 18 -28 37 -28 43 0 15 -54 54 -115 85 -27 14 -60 39 -73 57 -28 37 -48
35 -44 -6 2 -19 -5 -40 -17 -56 -26 -32 -26 -46 -4 -78 10 -14 20 -54 24 -93
4 -49 14 -80 35 -115 25 -39 29 -53 23 -87 -4 -22 -3 -48 2 -57 16 -30 10 -63
-21 -111 l-30 -47 -60 0 c-83 0 -116 19 -131 73 -18 68 -31 98 -54 126 -12 14
-32 46 -45 71 -14 25 -40 71 -59 103 -43 73 -38 84 55 112 61 18 69 24 72 47
2 19 -7 38 -32 66 -20 22 -36 46 -36 53 0 8 -9 33 -19 55 l-19 42 -65 4 c-95
6 -99 11 -71 107 20 71 21 82 9 117 -8 22 -14 50 -15 63 0 15 -16 39 -42 63
-36 33 -42 44 -39 74 6 72 -3 86 -104 149 -90 57 -95 62 -95 95 0 43 -30 105
-50 105 -10 0 -17 -13 -20 -40 -12 -87 -32 -86 -124 10 -71 75 -72 75 -104 64
-32 -11 -35 -9 -95 42 -34 30 -89 81 -122 115 -40 41 -71 63 -93 67 -19 4 -53
26 -81 52 -50 46 -104 75 -143 75 -13 0 -39 5 -59 10 -28 8 -38 16 -42 38 -5
23 -17 33 -66 54 -64 28 -79 48 -36 48 14 0 34 9 46 21 15 15 29 20 50 15 15
-3 60 3 99 13 l70 18 -52 12 c-240 57 -293 67 -518 96 -48 7 -506 16 -512 11z
m-208 -122 c50 -25 61 -26 229 -29 97 -1 190 -3 206 -4 l30 -2 -25 -13 c-37
-20 -193 -29 -280 -16 -85 12 -190 4 -190 -15 0 -8 27 -18 68 -25 71 -14 127
-34 136 -49 3 -5 20 -12 38 -15 18 -4 44 -15 57 -25 24 -18 24 -20 8 -45 l-17
-26 40 -6 c25 -4 41 -13 45 -24 4 -12 20 -21 45 -25 45 -8 64 -26 56 -53 -4
-13 -1 -22 9 -26 32 -12 17 -55 -39 -110 -52 -51 -54 -55 -46 -89 8 -36 -2
-57 -26 -57 -30 0 -37 -31 -36 -176 1 -81 4 -161 8 -179 6 -33 5 -34 -32 -41
-27 -5 -45 -2 -63 9 -14 9 -47 27 -72 41 -74 40 -148 130 -191 233 -40 96 -48
152 -23 173 26 21 14 54 -22 65 -38 11 -48 32 -32 68 10 22 8 31 -11 61 -12
20 -23 53 -24 74 -4 74 -71 137 -102 96 -6 -8 -20 -14 -30 -14 -10 0 -35 -17
-56 -37 l-38 -37 -145 -2 c-80 -2 -147 1 -150 6 -9 14 13 50 30 50 9 0 29 13
45 29 22 21 44 30 82 34 28 4 56 11 62 17 5 5 16 10 24 10 8 0 37 14 64 30 27
17 62 30 81 30 33 0 67 19 105 58 12 12 33 22 46 22 16 0 32 11 46 30 12 17
25 30 30 30 5 0 32 -12 60 -26z m1136 -496 c51 -25 102 -75 104 -103 7 -67
-12 -84 -92 -83 -59 1 -64 3 -109 45 -26 24 -60 48 -75 52 -15 4 -29 12 -32
19 -4 14 38 32 79 32 21 0 29 5 29 18 0 22 19 42 38 42 8 0 34 -10 58 -22z
m777 -300 c23 -11 71 -45 106 -75 35 -30 85 -65 110 -78 59 -29 173 -139 187
-179 9 -26 7 -35 -12 -66 -50 -76 -49 -76 -80 -65 -18 7 -30 18 -30 30 -1 11
-2 25 -3 32 -2 18 -38 26 -61 13 -12 -6 -20 -21 -20 -36 0 -22 -4 -25 -27 -22
-19 2 -29 10 -31 23 -6 30 -62 84 -97 93 l-30 8 -10 105 -10 104 -79 38 c-74
36 -78 39 -62 56 9 10 16 27 16 38 0 11 2 22 5 25 7 7 74 -16 128 -44z m-1907
-975 c7 -20 19 -29 54 -37 44 -11 45 -12 45 -49 0 -30 6 -44 28 -61 21 -17 27
-30 27 -59 l0 -37 -53 0 c-40 0 -57 5 -69 20 -25 29 -64 35 -93 16 -14 -9 -25
-21 -25 -26 0 -6 -7 -10 -16 -10 -14 0 -16 8 -10 56 4 33 15 67 26 82 12 14
18 33 15 43 -10 30 5 88 24 92 25 5 37 -2 47 -30z m-836 -1801 c44 -22 51 -48
14 -55 -22 -4 -34 2 -56 25 -43 47 -23 62 42 30z m20 -142 c30 -30 26 -60 -7
-60 -49 0 -88 62 -45 73 30 8 32 7 52 -13z m-135 -101 c73 -13 113 -33 143
-70 14 -18 42 -33 76 -43 29 -9 64 -24 77 -35 13 -10 39 -22 57 -25 17 -4 32
-11 32 -16 0 -19 -32 -32 -64 -27 -19 3 -50 2 -70 -3 -31 -7 -41 -4 -64 15
-73 61 -214 135 -258 135 -18 0 -51 -9 -75 -19 -34 -15 -47 -17 -58 -8 -11 10
-5 19 34 54 43 37 61 47 101 52 6 0 37 -4 69 -10z m556 -215 c6 -8 23 -14 38
-14 29 0 51 -16 51 -37 0 -7 -9 -13 -20 -13 -12 0 -42 -11 -68 -25 -41 -22
-55 -24 -107 -19 -79 9 -93 16 -60 34 29 16 31 27 9 52 -24 25 -3 46 49 50 49
3 91 -7 108 -28z m228 -70 c15 -34 9 -39 -31 -28 -23 7 -34 17 -36 32 -3 18 1
22 26 22 21 0 32 -7 41 -26z m172 6 c28 -16 23 -30 -11 -30 -23 0 -30 4 -30
20 0 22 12 25 41 10z m-701 -25 c16 -20 5 -62 -19 -70 -27 -8 -68 11 -76 35
-8 24 0 36 30 43 37 9 53 7 65 -8z m774 -71 c9 -3 16 -10 16 -16 0 -14 -43 -5
-48 10 -4 13 7 15 32 6z m56 -105 c0 -5 -10 -9 -21 -9 -18 0 -19 2 -9 15 12
15 30 12 30 -6z m10 -78 c0 -5 -9 -11 -20 -14 -22 -6 -26 3 -8 21 11 11 28 7
28 -7z m93 -25 c6 -15 -1 -26 -15 -26 -4 0 -8 9 -8 20 0 23 15 27 23 6z"/>
<path d="M773 5278 c-345 -405 -596 -907 -698 -1393 -9 -44 -19 -89 -21 -100
-6 -29 -12 -64 -20 -120 -3 -27 -8 -59 -10 -69 -19 -104 -26 -560 -11 -696 18
-154 39 -292 63 -395 39 -170 117 -419 163 -520 5 -11 26 -58 47 -105 200
-456 557 -906 969 -1221 338 -258 727 -448 1135 -555 101 -26 320 -69 410 -79
30 -4 73 -9 95 -11 22 -3 137 -7 255 -8 202 -4 214 -3 190 13 -13 9 -49 38
-80 65 -30 26 -65 55 -77 63 -12 8 -33 38 -47 67 -34 72 -97 140 -169 182 -34
20 -71 44 -82 54 -11 10 -49 26 -85 35 -80 20 -226 113 -314 200 -34 33 -74
67 -91 75 -37 19 -72 71 -81 119 -4 20 -14 45 -24 56 -10 11 -25 46 -35 77
-16 53 -16 59 0 105 9 26 21 56 26 65 16 31 9 92 -16 143 -14 28 -25 55 -25
61 0 7 -23 36 -51 65 l-51 54 -16 -35 c-22 -46 -54 -51 -93 -14 -22 21 -38 27
-62 26 -23 -2 -39 4 -51 17 -10 11 -30 23 -45 26 -17 4 -60 43 -121 112 -114
127 -134 143 -174 143 -47 1 -105 31 -170 91 -58 53 -61 54 -111 51 -29 -2
-61 1 -71 6 -11 5 -53 20 -94 32 -65 20 -83 31 -141 87 -36 35 -74 80 -83 101
-11 23 -35 48 -64 67 -49 32 -88 81 -99 124 -5 24 -80 203 -123 296 -31 67
-64 195 -80 315 -5 40 -15 79 -20 84 -6 6 -10 18 -10 29 0 10 -4 16 -9 12 -6
-3 -6 -18 0 -38 5 -17 13 -70 18 -117 6 -66 20 -114 60 -215 28 -71 51 -139
51 -150 0 -12 4 -25 9 -31 16 -15 42 -84 33 -84 -11 0 -102 83 -102 93 0 7
-67 152 -106 230 -8 16 -19 84 -25 150 -7 90 -19 152 -46 237 -35 112 -35 117
-24 185 12 73 10 105 -14 190 -27 98 -33 130 -30 160 2 17 9 84 16 150 13 121
57 279 108 382 12 23 21 46 21 52 0 5 11 22 24 38 18 22 25 45 30 113 6 66 14
96 36 135 16 28 38 79 50 114 13 35 33 80 46 99 13 19 24 45 24 57 0 12 16 44
35 71 19 27 35 54 35 61 0 6 11 24 24 40 12 15 38 65 55 109 22 56 45 94 72
120 45 44 46 49 20 88 l-19 29 -27 -54 c-15 -30 -34 -58 -43 -63 -8 -5 -31
-24 -52 -42 -20 -19 -40 -31 -44 -27 -15 16 -2 45 49 108 47 57 64 85 52 85
-1 0 -30 -33 -64 -72z"/>
</g>
</svg>
